<svg width="285" height="60" viewBox="0 0 285 60" fill="none" xmlns="http://www.w3.org/2000/svg">
<rect x="0.5" y="0.5" width="284" height="59" rx="14.5" fill="white" stroke="white"/>
<rect x="99.1521" y="20.6897" width="0.942782" height="18.6207" fill="white"/>
<g filter="url(#filter0_d_17_587)">
<g clip-path="url(#clip0_17_587)">
<mask id="mask0_17_587" style="mask-type:alpha" maskUnits="userSpaceOnUse" x="21" y="21" width="21" height="16">
<rect x="21.7866" y="21.7242" width="20" height="15" fill="white"/>
</mask>
<g mask="url(#mask0_17_587)">
<path fill-rule="evenodd" clip-rule="evenodd" d="M21.7866 21.7242H41.7866V36.7242H21.7866V21.7242Z" fill="#E31D1C"/>
<path fill-rule="evenodd" clip-rule="evenodd" d="M21.7866 22.9742V24.2242H41.7866V22.9742H21.7866ZM21.7866 25.4742V26.7242H41.7866V25.4742H21.7866ZM21.7866 29.2242V27.9742H41.7866V29.2242H21.7866ZM21.7866 30.4742V31.7242H41.7866V30.4742H21.7866ZM21.7866 34.2242V32.9742H41.7866V34.2242H21.7866ZM21.7866 36.7242V35.4742H41.7866V36.7242H21.7866Z" fill="#F7FCFF"/>
<rect x="21.7866" y="21.7242" width="11.25" height="8.75" fill="#2E42A5"/>
<path fill-rule="evenodd" clip-rule="evenodd" d="M23.0866 24.4414L23.749 23.98L24.2628 24.3499H23.9719L24.5603 24.8702L24.3615 25.5999H24.0503L23.7481 24.9297L23.4904 25.5999H22.7219L23.3103 26.1202L23.0866 26.9414L23.749 26.48L24.2628 26.8499H23.9719L24.5603 27.3702L24.3615 28.0999H24.0503L23.7481 27.4297L23.4904 28.0999H22.7219L23.3103 28.6202L23.0866 29.4414L23.749 28.98L24.3899 29.4414L24.1907 28.6202L24.7054 28.0999H24.468L24.999 27.73L25.5128 28.0999H25.2219L25.8103 28.6202L25.5866 29.4414L26.249 28.98L26.8899 29.4414L26.6907 28.6202L27.2054 28.0999H26.968L27.499 27.73L28.0128 28.0999H27.7219L28.3103 28.6202L28.0866 29.4414L28.749 28.98L29.3899 29.4414L29.1907 28.6202L29.7054 28.0999H29.468L29.999 27.73L30.5128 28.0999H30.2219L30.8103 28.6202L30.5866 29.4414L31.249 28.98L31.8899 29.4414L31.6907 28.6202L32.2054 28.0999H31.5503L31.2481 27.4297L30.9904 28.0999H30.6177L30.4407 27.3702L30.9554 26.8499H30.718L31.249 26.48L31.8899 26.9414L31.6907 26.1202L32.2054 25.5999H31.5503L31.2481 24.9297L30.9904 25.5999H30.6177L30.4407 24.8702L30.9554 24.3499H30.718L31.249 23.98L31.8899 24.4414L31.6907 23.6202L32.2054 23.0999H31.5503L31.2481 22.4297L30.9904 23.0999H30.2219L30.8103 23.6202L30.6115 24.3499H30.3003L29.9981 23.6797L29.7404 24.3499H29.3677L29.1907 23.6202L29.7054 23.0999H29.0503L28.7481 22.4297L28.4904 23.0999H27.7219L28.3103 23.6202L28.1115 24.3499H27.8003L27.4981 23.6797L27.2404 24.3499H26.8677L26.6907 23.6202L27.2054 23.0999H26.5503L26.2481 22.4297L25.9904 23.0999H25.2219L25.8103 23.6202L25.6115 24.3499H25.3003L24.9981 23.6797L24.7404 24.3499H24.3677L24.1907 23.6202L24.7054 23.0999H24.0503L23.7481 22.4297L23.4904 23.0999H22.7219L23.3103 23.6202L23.0866 24.4414ZM30.6115 26.8499L30.8103 26.1202L30.2219 25.5999H30.5128L29.999 25.23L29.468 25.5999H29.7054L29.1907 26.1202L29.3677 26.8499H29.7404L29.9981 26.1797L30.3003 26.8499H30.6115ZM29.2628 26.8499L28.749 26.48L28.218 26.8499H28.4554L27.9407 27.3702L28.1177 28.0999H28.4904L28.7481 27.4297L29.0503 28.0999H29.3615L29.5603 27.3702L28.9719 26.8499H29.2628ZM27.0603 27.3702L26.8615 28.0999H26.5503L26.2481 27.4297L25.9904 28.0999H25.6177L25.4407 27.3702L25.9554 26.8499H25.718L26.249 26.48L26.7628 26.8499H26.4719L27.0603 27.3702ZM27.2404 26.8499H26.8677L26.6907 26.1202L27.2054 25.5999H26.968L27.499 25.23L28.0128 25.5999H27.7219L28.3103 26.1202L28.1115 26.8499H27.8003L27.4981 26.1797L27.2404 26.8499ZM25.6115 26.8499L25.8103 26.1202L25.2219 25.5999H25.5128L24.999 25.23L24.468 25.5999H24.7054L24.1907 26.1202L24.3677 26.8499H24.7404L24.9981 26.1797L25.3003 26.8499H25.6115ZM29.5603 24.8702L29.3615 25.5999H29.0503L28.7481 24.9297L28.4904 25.5999H28.1177L27.9407 24.8702L28.4554 24.3499H28.218L28.749 23.98L29.2628 24.3499H28.9719L29.5603 24.8702ZM26.7628 24.3499L26.249 23.98L25.718 24.3499H25.9554L25.4407 24.8702L25.6177 25.5999H25.9904L26.2481 24.9297L26.5503 25.5999H26.8615L27.0603 24.8702L26.4719 24.3499H26.7628Z" fill="#F7FCFF"/>
</g>
<rect x="22.7866" y="21.7242" width="18.8556" height="15.5172" fill="url(#paint0_linear_17_587)" style="mix-blend-mode:overlay"/>
</g>
<rect x="23.2866" y="22.2242" width="17.8556" height="14.5172" rx="1" stroke="black" stroke-opacity="0.1" style="mix-blend-mode:multiply"/>
</g>
<path d="M86.0845 31.3448L82.3134 35.4828L78.5422 31.3448" stroke="#ADAFBB" stroke-width="2" stroke-linecap="round" stroke-linejoin="round"/>
<path d="M47.96 30.968C47.96 32.1093 48.104 33.2187 48.392 34.296C48.6853 35.3733 49.112 36.3973 49.672 37.368C49.7573 37.5333 49.7787 37.6587 49.736 37.744C49.6933 37.8347 49.632 37.9067 49.552 37.96L48.92 38.344C48.52 37.7307 48.1787 37.1227 47.896 36.52C47.6187 35.9173 47.392 35.312 47.216 34.704C47.0453 34.096 46.92 33.4853 46.84 32.872C46.76 32.2533 46.72 31.6187 46.72 30.968C46.72 30.3227 46.76 29.6907 46.84 29.072C46.92 28.4533 47.0453 27.8427 47.216 27.24C47.392 26.632 47.6187 26.0267 47.896 25.424C48.1787 24.8213 48.52 24.2107 48.92 23.592L49.552 23.984C49.632 24.0373 49.6933 24.1093 49.736 24.2C49.7787 24.2853 49.7573 24.408 49.672 24.568C49.112 25.5387 48.6853 26.5627 48.392 27.64C48.104 28.7173 47.96 29.8267 47.96 30.968ZM58.7456 31.168H55.4816V34.608H54.3216V31.168H51.0736V30.088H54.3216V26.672H55.4816V30.088H58.7456V31.168ZM67.6909 34.912V36H61.5469V34.912H64.0029V27.096C64.0029 26.8613 64.0109 26.624 64.0269 26.384L61.9869 28.136C61.9175 28.1947 61.8482 28.232 61.7789 28.248C61.7095 28.2587 61.6455 28.2587 61.5869 28.248C61.5282 28.2373 61.4722 28.216 61.4189 28.184C61.3709 28.152 61.3335 28.1173 61.3069 28.08L60.8589 27.464L64.2749 24.512H65.4349V34.912H67.6909ZM71.1401 30.968C71.1401 29.8267 70.9935 28.7173 70.7001 27.64C70.4121 26.5627 69.9881 25.5387 69.4281 24.568C69.3855 24.488 69.3588 24.4187 69.3481 24.36C69.3375 24.296 69.3401 24.2427 69.3561 24.2C69.3721 24.152 69.3961 24.112 69.4281 24.08C69.4655 24.0427 69.5055 24.0107 69.5481 23.984L70.1801 23.592C70.5801 24.2107 70.9188 24.8213 71.1961 25.424C71.4788 26.0267 71.7055 26.632 71.8761 27.24C72.0521 27.8427 72.1801 28.4533 72.2601 29.072C72.3401 29.6907 72.3801 30.3227 72.3801 30.968C72.3801 31.6187 72.3401 32.2533 72.2601 32.872C72.1801 33.4853 72.0521 34.096 71.8761 34.704C71.7055 35.312 71.4788 35.9173 71.1961 36.52C70.9188 37.1227 70.5801 37.7307 70.1801 38.344L69.5481 37.96C69.5055 37.9333 69.4655 37.9013 69.4281 37.864C69.3961 37.832 69.3721 37.792 69.3561 37.744C69.3401 37.7013 69.3375 37.648 69.3481 37.584C69.3588 37.52 69.3855 37.448 69.4281 37.368C69.9881 36.3973 70.4121 35.3733 70.7001 34.296C70.9935 33.2187 71.1401 32.1093 71.1401 30.968Z" fill="black"/>
<path d="M120.96 30.968C120.96 32.1093 121.104 33.2187 121.392 34.296C121.685 35.3733 122.112 36.3973 122.672 37.368C122.757 37.5333 122.779 37.6587 122.736 37.744C122.693 37.8347 122.632 37.9067 122.552 37.96L121.92 38.344C121.52 37.7307 121.179 37.1227 120.896 36.52C120.619 35.9173 120.392 35.312 120.216 34.704C120.045 34.096 119.92 33.4853 119.84 32.872C119.76 32.2533 119.72 31.6187 119.72 30.968C119.72 30.3227 119.76 29.6907 119.84 29.072C119.92 28.4533 120.045 27.8427 120.216 27.24C120.392 26.632 120.619 26.0267 120.896 25.424C121.179 24.8213 121.52 24.2107 121.92 23.592L122.552 23.984C122.632 24.0373 122.693 24.1093 122.736 24.2C122.779 24.2853 122.757 24.408 122.672 24.568C122.112 25.5387 121.685 26.5627 121.392 27.64C121.104 28.7173 120.96 29.8267 120.96 30.968ZM131.41 34.912V36H125.266V34.912H127.722V27.096C127.722 26.8613 127.73 26.624 127.746 26.384L125.706 28.136C125.636 28.1947 125.567 28.232 125.498 28.248C125.428 28.2587 125.364 28.2587 125.306 28.248C125.247 28.2373 125.191 28.216 125.138 28.184C125.09 28.152 125.052 28.1173 125.026 28.08L124.578 27.464L127.994 24.512H129.154V34.912H131.41ZM140.443 34.648C140.598 34.648 140.72 34.6933 140.811 34.784C140.902 34.8747 140.947 34.992 140.947 35.136V36H133.299V35.512C133.299 35.4107 133.32 35.3067 133.363 35.2C133.406 35.0933 133.472 34.9947 133.563 34.904L137.235 31.216C137.539 30.9067 137.816 30.6107 138.067 30.328C138.318 30.04 138.531 29.752 138.707 29.464C138.883 29.176 139.019 28.8853 139.115 28.592C139.211 28.2933 139.259 27.976 139.259 27.64C139.259 27.304 139.206 27.0107 139.099 26.76C138.992 26.504 138.846 26.2933 138.659 26.128C138.478 25.9627 138.262 25.84 138.011 25.76C137.76 25.6747 137.491 25.632 137.203 25.632C136.91 25.632 136.64 25.6747 136.395 25.76C136.15 25.8453 135.931 25.9653 135.739 26.12C135.552 26.2693 135.395 26.448 135.267 26.656C135.139 26.864 135.048 27.0933 134.995 27.344C134.931 27.5307 134.843 27.656 134.731 27.72C134.624 27.7787 134.472 27.7947 134.275 27.768L133.531 27.64C133.606 27.1173 133.75 26.656 133.963 26.256C134.182 25.8507 134.454 25.512 134.779 25.24C135.11 24.968 135.486 24.7627 135.907 24.624C136.328 24.48 136.784 24.408 137.275 24.408C137.76 24.408 138.214 24.48 138.635 24.624C139.056 24.768 139.422 24.9787 139.731 25.256C140.04 25.528 140.283 25.8613 140.459 26.256C140.635 26.6507 140.723 27.0987 140.723 27.6C140.723 28.0267 140.659 28.424 140.531 28.792C140.403 29.1547 140.23 29.5013 140.011 29.832C139.792 30.1627 139.539 30.4853 139.251 30.8C138.968 31.1147 138.667 31.432 138.347 31.752L135.323 34.84C135.536 34.7813 135.752 34.736 135.971 34.704C136.19 34.6667 136.4 34.648 136.603 34.648H140.443ZM142.868 27.64C142.943 27.1173 143.087 26.656 143.3 26.256C143.513 25.8507 143.783 25.512 144.108 25.24C144.439 24.968 144.815 24.7627 145.236 24.624C145.663 24.48 146.121 24.408 146.612 24.408C147.097 24.408 147.545 24.4773 147.956 24.616C148.367 24.7547 148.719 24.952 149.012 25.208C149.311 25.464 149.543 25.7733 149.708 26.136C149.873 26.4987 149.956 26.9013 149.956 27.344C149.956 27.7067 149.908 28.032 149.812 28.32C149.721 28.6027 149.588 28.8507 149.412 29.064C149.241 29.2773 149.033 29.4587 148.788 29.608C148.543 29.7573 148.268 29.88 147.964 29.976C148.711 30.168 149.271 30.4987 149.644 30.968C150.023 31.432 150.212 32.0133 150.212 32.712C150.212 33.24 150.111 33.7147 149.908 34.136C149.711 34.5573 149.439 34.9173 149.092 35.216C148.745 35.5093 148.34 35.736 147.876 35.896C147.417 36.0507 146.924 36.128 146.396 36.128C145.788 36.128 145.268 36.0533 144.836 35.904C144.404 35.7493 144.039 35.5387 143.74 35.272C143.441 35.0053 143.196 34.6907 143.004 34.328C142.812 33.96 142.649 33.5627 142.516 33.136L143.132 32.88C143.292 32.8107 143.447 32.792 143.596 32.824C143.751 32.856 143.863 32.944 143.932 33.088C144.001 33.2373 144.087 33.416 144.188 33.624C144.295 33.832 144.439 34.032 144.62 34.224C144.801 34.416 145.031 34.5787 145.308 34.712C145.591 34.8453 145.948 34.912 146.38 34.912C146.78 34.912 147.129 34.848 147.428 34.72C147.732 34.5867 147.983 34.416 148.18 34.208C148.383 34 148.535 33.768 148.636 33.512C148.737 33.256 148.788 33.0027 148.788 32.752C148.788 32.4427 148.748 32.16 148.668 31.904C148.588 31.648 148.439 31.4267 148.22 31.24C148.001 31.0533 147.7 30.9067 147.316 30.8C146.937 30.6933 146.449 30.64 145.852 30.64V29.608C146.343 29.6027 146.759 29.5493 147.1 29.448C147.447 29.3467 147.727 29.208 147.94 29.032C148.159 28.856 148.316 28.6453 148.412 28.4C148.513 28.1547 148.564 27.8827 148.564 27.584C148.564 27.2533 148.511 26.9653 148.404 26.72C148.303 26.4747 148.161 26.272 147.98 26.112C147.799 25.952 147.583 25.832 147.332 25.752C147.087 25.672 146.82 25.632 146.532 25.632C146.244 25.632 145.975 25.6747 145.724 25.76C145.479 25.8453 145.26 25.9653 145.068 26.12C144.881 26.2693 144.724 26.448 144.596 26.656C144.468 26.864 144.377 27.0933 144.324 27.344C144.255 27.5307 144.167 27.656 144.06 27.72C143.959 27.7787 143.809 27.7947 143.612 27.768L142.868 27.64ZM153.421 30.968C153.421 29.8267 153.275 28.7173 152.981 27.64C152.693 26.5627 152.269 25.5387 151.709 24.568C151.667 24.488 151.64 24.4187 151.629 24.36C151.619 24.296 151.621 24.2427 151.637 24.2C151.653 24.152 151.677 24.112 151.709 24.08C151.747 24.0427 151.787 24.0107 151.829 23.984L152.461 23.592C152.861 24.2107 153.2 24.8213 153.477 25.424C153.76 26.0267 153.987 26.632 154.157 27.24C154.333 27.8427 154.461 28.4533 154.541 29.072C154.621 29.6907 154.661 30.3227 154.661 30.968C154.661 31.6187 154.621 32.2533 154.541 32.872C154.461 33.4853 154.333 34.096 154.157 34.704C153.987 35.312 153.76 35.9173 153.477 36.52C153.2 37.1227 152.861 37.7307 152.461 38.344L151.829 37.96C151.787 37.9333 151.747 37.9013 151.709 37.864C151.677 37.832 151.653 37.792 151.637 37.744C151.621 37.7013 151.619 37.648 151.629 37.584C151.64 37.52 151.667 37.448 151.709 37.368C152.269 36.3973 152.693 35.3733 152.981 34.296C153.275 33.2187 153.421 32.1093 153.421 30.968ZM165.309 31.864V27.136C165.309 26.9973 165.314 26.8453 165.325 26.68C165.335 26.5147 165.351 26.3467 165.373 26.176L161.197 31.864H165.309ZM168.293 31.864V32.68C168.293 32.7653 168.266 32.8373 168.213 32.896C168.165 32.9547 168.087 32.984 167.981 32.984H166.557V36H165.309V32.984H160.221C160.114 32.984 160.021 32.9547 159.941 32.896C159.866 32.832 159.818 32.7547 159.797 32.664L159.653 31.936L165.229 24.536H166.557V31.864H168.293ZM171.646 28.864C172.243 28.736 172.793 28.672 173.294 28.672C173.891 28.672 174.419 28.76 174.878 28.936C175.337 29.112 175.718 29.3547 176.022 29.664C176.331 29.9733 176.563 30.3387 176.718 30.76C176.878 31.1813 176.958 31.64 176.958 32.136C176.958 32.744 176.851 33.2933 176.638 33.784C176.43 34.2747 176.139 34.696 175.766 35.048C175.398 35.3947 174.963 35.6613 174.462 35.848C173.961 36.0347 173.419 36.128 172.838 36.128C172.502 36.128 172.179 36.0933 171.87 36.024C171.561 35.96 171.27 35.872 170.998 35.76C170.731 35.648 170.483 35.52 170.254 35.376C170.025 35.232 169.822 35.08 169.646 34.92L170.086 34.312C170.182 34.1733 170.307 34.104 170.462 34.104C170.569 34.104 170.689 34.1467 170.822 34.232C170.955 34.312 171.118 34.4027 171.31 34.504C171.502 34.6053 171.726 34.6987 171.982 34.784C172.243 34.864 172.553 34.904 172.91 34.904C173.31 34.904 173.67 34.84 173.99 34.712C174.31 34.584 174.585 34.4027 174.814 34.168C175.043 33.928 175.219 33.6427 175.342 33.312C175.465 32.9813 175.526 32.6107 175.526 32.2C175.526 31.8427 175.473 31.52 175.366 31.232C175.265 30.944 175.107 30.6987 174.894 30.496C174.686 30.2933 174.425 30.136 174.11 30.024C173.795 29.912 173.427 29.856 173.006 29.856C172.718 29.856 172.417 29.88 172.102 29.928C171.793 29.976 171.475 30.0533 171.15 30.16L170.254 29.896L171.174 24.536H176.606V25.16C176.606 25.3627 176.542 25.5307 176.414 25.664C176.291 25.792 176.078 25.856 175.774 25.856H172.174L171.646 28.864ZM182.655 34.944C183.039 34.944 183.386 34.8827 183.695 34.76C184.01 34.6373 184.277 34.4667 184.495 34.248C184.719 34.0293 184.89 33.7707 185.007 33.472C185.13 33.1733 185.191 32.848 185.191 32.496C185.191 32.1227 185.133 31.7867 185.015 31.488C184.898 31.184 184.73 30.928 184.511 30.72C184.298 30.5067 184.042 30.344 183.743 30.232C183.445 30.12 183.117 30.064 182.759 30.064C182.375 30.064 182.029 30.1307 181.719 30.264C181.41 30.392 181.146 30.568 180.927 30.792C180.714 31.0107 180.549 31.2667 180.431 31.56C180.319 31.848 180.263 32.1493 180.263 32.464C180.263 32.832 180.317 33.168 180.423 33.472C180.53 33.776 180.685 34.0373 180.887 34.256C181.095 34.4747 181.346 34.6453 181.639 34.768C181.938 34.8853 182.277 34.944 182.655 34.944ZM181.823 28.832C181.722 28.96 181.623 29.0853 181.527 29.208C181.437 29.3253 181.349 29.4427 181.263 29.56C181.535 29.3733 181.834 29.2293 182.159 29.128C182.485 29.0267 182.839 28.976 183.223 28.976C183.687 28.976 184.125 29.0533 184.535 29.208C184.946 29.3573 185.303 29.5787 185.607 29.872C185.917 30.16 186.162 30.5173 186.343 30.944C186.525 31.3653 186.615 31.848 186.615 32.392C186.615 32.92 186.519 33.4107 186.327 33.864C186.135 34.3173 185.866 34.712 185.519 35.048C185.178 35.384 184.765 35.648 184.279 35.84C183.799 36.032 183.269 36.128 182.687 36.128C182.111 36.128 181.589 36.0373 181.119 35.856C180.65 35.6693 180.25 35.408 179.919 35.072C179.594 34.7307 179.341 34.32 179.159 33.84C178.983 33.3547 178.895 32.8133 178.895 32.216C178.895 31.7147 179.005 31.1813 179.223 30.616C179.447 30.0453 179.802 29.4373 180.287 28.792L183.199 24.88C183.274 24.784 183.375 24.704 183.503 24.64C183.637 24.5707 183.789 24.536 183.959 24.536H185.223L181.823 28.832ZM192.406 30.6H196.358V31.808H192.406V30.6ZM210.086 24.536V25.176C210.086 25.3573 210.064 25.5067 210.022 25.624C209.984 25.7413 209.947 25.84 209.91 25.92L205.158 35.496C205.088 35.6347 204.992 35.7547 204.87 35.856C204.747 35.952 204.584 36 204.382 36H203.358L208.174 26.544C208.243 26.4107 208.315 26.288 208.39 26.176C208.464 26.064 208.544 25.9573 208.63 25.856H202.646C202.555 25.856 202.475 25.8213 202.406 25.752C202.336 25.6773 202.302 25.5947 202.302 25.504V24.536H210.086ZM215.359 34.992C215.732 34.992 216.065 34.9413 216.359 34.84C216.657 34.7333 216.908 34.5867 217.111 34.4C217.319 34.208 217.476 33.9813 217.583 33.72C217.695 33.4533 217.751 33.16 217.751 32.84C217.751 32.4453 217.684 32.1093 217.551 31.832C217.423 31.5493 217.247 31.32 217.023 31.144C216.804 30.968 216.551 30.84 216.263 30.76C215.975 30.6747 215.673 30.632 215.359 30.632C215.044 30.632 214.743 30.6747 214.455 30.76C214.167 30.84 213.911 30.968 213.687 31.144C213.468 31.32 213.292 31.5493 213.159 31.832C213.031 32.1093 212.967 32.4453 212.967 32.84C212.967 33.16 213.02 33.4533 213.127 33.72C213.239 33.9813 213.396 34.208 213.599 34.4C213.807 34.5867 214.057 34.7333 214.351 34.84C214.649 34.9413 214.985 34.992 215.359 34.992ZM215.359 25.512C215.017 25.512 214.716 25.5627 214.455 25.664C214.199 25.7653 213.983 25.904 213.807 26.08C213.636 26.256 213.505 26.4613 213.415 26.696C213.329 26.9307 213.287 27.1813 213.287 27.448C213.287 27.7093 213.324 27.9627 213.399 28.208C213.473 28.4533 213.593 28.672 213.759 28.864C213.924 29.0507 214.137 29.2027 214.399 29.32C214.665 29.432 214.985 29.488 215.359 29.488C215.732 29.488 216.049 29.432 216.311 29.32C216.577 29.2027 216.793 29.0507 216.959 28.864C217.124 28.672 217.244 28.4533 217.319 28.208C217.393 27.9627 217.431 27.7093 217.431 27.448C217.431 27.1813 217.385 26.9307 217.295 26.696C217.209 26.4613 217.079 26.256 216.903 26.08C216.732 25.904 216.516 25.7653 216.255 25.664C215.999 25.5627 215.7 25.512 215.359 25.512ZM216.999 30.024C217.713 30.2267 218.263 30.5653 218.647 31.04C219.031 31.5147 219.223 32.1227 219.223 32.864C219.223 33.3653 219.127 33.8187 218.935 34.224C218.748 34.624 218.484 34.9653 218.143 35.248C217.807 35.5307 217.401 35.7493 216.927 35.904C216.452 36.0533 215.929 36.128 215.359 36.128C214.788 36.128 214.265 36.0533 213.791 35.904C213.316 35.7493 212.908 35.5307 212.567 35.248C212.225 34.9653 211.961 34.624 211.775 34.224C211.588 33.8187 211.495 33.3653 211.495 32.864C211.495 32.1227 211.687 31.5147 212.071 31.04C212.455 30.5653 213.004 30.2267 213.719 30.024C213.116 29.8 212.66 29.4667 212.351 29.024C212.047 28.576 211.895 28.0427 211.895 27.424C211.895 27.0027 211.977 26.608 212.143 26.24C212.308 25.872 212.543 25.552 212.847 25.28C213.151 25.008 213.513 24.7947 213.935 24.64C214.361 24.4853 214.836 24.408 215.359 24.408C215.876 24.408 216.348 24.4853 216.775 24.64C217.201 24.7947 217.567 25.008 217.871 25.28C218.175 25.552 218.409 25.872 218.575 26.24C218.74 26.608 218.823 27.0027 218.823 27.424C218.823 28.0427 218.668 28.576 218.359 29.024C218.055 29.4667 217.601 29.8 216.999 30.024ZM222.264 27.904C222.264 28.2667 222.315 28.592 222.416 28.88C222.523 29.1627 222.672 29.4027 222.864 29.6C223.061 29.7973 223.299 29.9467 223.576 30.048C223.859 30.1493 224.173 30.2 224.52 30.2C224.904 30.2 225.243 30.1387 225.536 30.016C225.835 29.888 226.085 29.72 226.288 29.512C226.491 29.304 226.645 29.064 226.752 28.792C226.859 28.52 226.912 28.2373 226.912 27.944C226.912 27.5867 226.853 27.264 226.736 26.976C226.624 26.6827 226.467 26.4347 226.264 26.232C226.061 26.0293 225.819 25.8747 225.536 25.768C225.259 25.656 224.952 25.6 224.616 25.6C224.264 25.6 223.944 25.6587 223.656 25.776C223.368 25.888 223.12 26.0453 222.912 26.248C222.704 26.4507 222.544 26.6933 222.432 26.976C222.32 27.2587 222.264 27.568 222.264 27.904ZM225.592 31.432C225.709 31.2773 225.819 31.1307 225.92 30.992C226.021 30.8533 226.117 30.7147 226.208 30.576C225.915 30.8107 225.584 30.9893 225.216 31.112C224.848 31.2347 224.459 31.296 224.048 31.296C223.616 31.296 223.205 31.224 222.816 31.08C222.432 30.936 222.093 30.7253 221.8 30.448C221.507 30.1653 221.272 29.8213 221.096 29.416C220.925 29.0053 220.84 28.536 220.84 28.008C220.84 27.5067 220.933 27.0373 221.12 26.6C221.307 26.1627 221.568 25.7813 221.904 25.456C222.24 25.1307 222.64 24.8747 223.104 24.688C223.568 24.5013 224.077 24.408 224.632 24.408C225.181 24.408 225.68 24.4987 226.128 24.68C226.576 24.8613 226.96 25.1147 227.28 25.44C227.6 25.7653 227.845 26.1547 228.016 26.608C228.192 27.0613 228.28 27.5627 228.28 28.112C228.28 28.4427 228.248 28.7573 228.184 29.056C228.125 29.3493 228.037 29.64 227.92 29.928C227.808 30.2107 227.669 30.4933 227.504 30.776C227.339 31.0533 227.152 31.3387 226.944 31.632L224.152 35.664C224.083 35.7653 223.984 35.848 223.856 35.912C223.728 35.9707 223.581 36 223.416 36H222.104L225.592 31.432ZM238.081 30.272C238.081 31.2747 237.972 32.144 237.753 32.88C237.54 33.6107 237.247 34.216 236.873 34.696C236.5 35.176 236.057 35.5333 235.545 35.768C235.039 36.0027 234.495 36.12 233.913 36.12C233.327 36.12 232.78 36.0027 232.273 35.768C231.772 35.5333 231.335 35.176 230.961 34.696C230.588 34.216 230.295 33.6107 230.081 32.88C229.868 32.144 229.761 31.2747 229.761 30.272C229.761 29.2693 229.868 28.4 230.081 27.664C230.295 26.928 230.588 26.32 230.961 25.84C231.335 25.3547 231.772 24.9947 232.273 24.76C232.78 24.5253 233.327 24.408 233.913 24.408C234.495 24.408 235.039 24.5253 235.545 24.76C236.057 24.9947 236.5 25.3547 236.873 25.84C237.247 26.32 237.54 26.928 237.753 27.664C237.972 28.4 238.081 29.2693 238.081 30.272ZM236.601 30.272C236.601 29.3973 236.527 28.664 236.377 28.072C236.233 27.4747 236.036 26.9947 235.785 26.632C235.54 26.2693 235.255 26.0107 234.929 25.856C234.604 25.696 234.265 25.616 233.913 25.616C233.561 25.616 233.223 25.696 232.897 25.856C232.572 26.0107 232.287 26.2693 232.041 26.632C231.796 26.9947 231.599 27.4747 231.449 28.072C231.305 28.664 231.233 29.3973 231.233 30.272C231.233 31.1467 231.305 31.88 231.449 32.472C231.599 33.064 231.796 33.5413 232.041 33.904C232.287 34.2667 232.572 34.528 232.897 34.688C233.223 34.8427 233.561 34.92 233.913 34.92C234.265 34.92 234.604 34.8427 234.929 34.688C235.255 34.528 235.54 34.2667 235.785 33.904C236.036 33.5413 236.233 33.064 236.377 32.472C236.527 31.88 236.601 31.1467 236.601 30.272Z" fill="black" fill-opacity="0.35"/>
<defs>
<filter id="filter0_d_17_587" x="19.7866" y="20.7242" width="24.8557" height="21.5172" filterUnits="userSpaceOnUse" color-interpolation-filters="sRGB">
<feFlood flood-opacity="0" result="BackgroundImageFix"/>
<feColorMatrix in="SourceAlpha" type="matrix" values="0 0 0 0 0 0 0 0 0 0 0 0 0 0 0 0 0 0 127 0" result="hardAlpha"/>
<feOffset dy="2"/>
<feGaussianBlur stdDeviation="1.5"/>
<feColorMatrix type="matrix" values="0 0 0 0 0 0 0 0 0 0 0 0 0 0 0 0 0 0 0.1 0"/>
<feBlend mode="normal" in2="BackgroundImageFix" result="effect1_dropShadow_17_587"/>
<feBlend mode="normal" in="SourceGraphic" in2="effect1_dropShadow_17_587" result="shape"/>
</filter>
<linearGradient id="paint0_linear_17_587" x1="32.2144" y1="21.7242" x2="32.2144" y2="37.2414" gradientUnits="userSpaceOnUse">
<stop stop-color="white" stop-opacity="0.7"/>
<stop offset="1" stop-opacity="0.3"/>
</linearGradient>
<clipPath id="clip0_17_587">
<rect x="22.7866" y="21.7242" width="18.8556" height="15.5172" rx="1.5" fill="white"/>
</clipPath>
</defs>
</svg>
