<svg width="295" height="70" viewBox="0 0 295 70" fill="none" xmlns="http://www.w3.org/2000/svg">
<rect x="2.5" y="2.5" width="290" height="65" rx="12.5" fill="white" stroke="black" stroke-width="5"/>
<path d="M101.244 30.68V34.96H106.664V37.11H101.244V43H98.5436V28.54H107.664V30.68H101.244ZM112.022 32.74V43H109.542V32.74H112.022ZM112.362 29.75C112.362 29.9633 112.319 30.1633 112.232 30.35C112.146 30.5367 112.029 30.7 111.882 30.84C111.742 30.98 111.576 31.0933 111.382 31.18C111.189 31.26 110.982 31.3 110.762 31.3C110.549 31.3 110.346 31.26 110.152 31.18C109.966 31.0933 109.802 30.98 109.662 30.84C109.522 30.7 109.409 30.5367 109.322 30.35C109.242 30.1633 109.202 29.9633 109.202 29.75C109.202 29.53 109.242 29.3233 109.322 29.13C109.409 28.9367 109.522 28.77 109.662 28.63C109.802 28.49 109.966 28.38 110.152 28.3C110.346 28.2133 110.549 28.17 110.762 28.17C110.982 28.17 111.189 28.2133 111.382 28.3C111.576 28.38 111.742 28.49 111.882 28.63C112.029 28.77 112.146 28.9367 112.232 29.13C112.319 29.3233 112.362 29.53 112.362 29.75ZM116.87 34.52C117.19 33.9067 117.57 33.4267 118.01 33.08C118.45 32.7267 118.97 32.55 119.57 32.55C120.044 32.55 120.424 32.6533 120.71 32.86L120.55 34.71C120.517 34.83 120.467 34.9167 120.4 34.97C120.34 35.0167 120.257 35.04 120.15 35.04C120.05 35.04 119.9 35.0233 119.7 34.99C119.507 34.9567 119.317 34.94 119.13 34.94C118.857 34.94 118.614 34.98 118.4 35.06C118.187 35.14 117.994 35.2567 117.82 35.41C117.654 35.5567 117.504 35.7367 117.37 35.95C117.244 36.1633 117.124 36.4067 117.01 36.68V43H114.54V32.74H115.99C116.244 32.74 116.42 32.7867 116.52 32.88C116.62 32.9667 116.687 33.1267 116.72 33.36L116.87 34.52ZM128.222 34.74C128.156 34.8467 128.086 34.9233 128.012 34.97C127.939 35.01 127.846 35.03 127.732 35.03C127.612 35.03 127.482 34.9967 127.342 34.93C127.209 34.8633 127.052 34.79 126.872 34.71C126.692 34.6233 126.486 34.5467 126.252 34.48C126.026 34.4133 125.756 34.38 125.442 34.38C124.956 34.38 124.572 34.4833 124.292 34.69C124.019 34.8967 123.882 35.1667 123.882 35.5C123.882 35.72 123.952 35.9067 124.092 36.06C124.239 36.2067 124.429 36.3367 124.662 36.45C124.902 36.5633 125.172 36.6667 125.472 36.76C125.772 36.8467 126.076 36.9433 126.382 37.05C126.696 37.1567 127.002 37.28 127.302 37.42C127.602 37.5533 127.869 37.7267 128.102 37.94C128.342 38.1467 128.532 38.3967 128.672 38.69C128.819 38.9833 128.892 39.3367 128.892 39.75C128.892 40.2433 128.802 40.7 128.622 41.12C128.449 41.5333 128.189 41.8933 127.842 42.2C127.496 42.5 127.066 42.7367 126.552 42.91C126.046 43.0767 125.459 43.16 124.792 43.16C124.439 43.16 124.092 43.1267 123.752 43.06C123.419 43 123.096 42.9133 122.782 42.8C122.476 42.6867 122.189 42.5533 121.922 42.4C121.662 42.2467 121.432 42.08 121.232 41.9L121.802 40.96C121.876 40.8467 121.962 40.76 122.062 40.7C122.162 40.64 122.289 40.61 122.442 40.61C122.596 40.61 122.739 40.6533 122.872 40.74C123.012 40.8267 123.172 40.92 123.352 41.02C123.532 41.12 123.742 41.2133 123.982 41.3C124.229 41.3867 124.539 41.43 124.912 41.43C125.206 41.43 125.456 41.3967 125.662 41.33C125.876 41.2567 126.049 41.1633 126.182 41.05C126.322 40.9367 126.422 40.8067 126.482 40.66C126.549 40.5067 126.582 40.35 126.582 40.19C126.582 39.95 126.509 39.7533 126.362 39.6C126.222 39.4467 126.032 39.3133 125.792 39.2C125.559 39.0867 125.289 38.9867 124.982 38.9C124.682 38.8067 124.372 38.7067 124.052 38.6C123.739 38.4933 123.429 38.37 123.122 38.23C122.822 38.0833 122.552 37.9 122.312 37.68C122.079 37.46 121.889 37.19 121.742 36.87C121.602 36.55 121.532 36.1633 121.532 35.71C121.532 35.29 121.616 34.89 121.782 34.51C121.949 34.13 122.192 33.8 122.512 33.52C122.839 33.2333 123.242 33.0067 123.722 32.84C124.209 32.6667 124.769 32.58 125.402 32.58C126.109 32.58 126.752 32.6967 127.332 32.93C127.912 33.1633 128.396 33.47 128.782 33.85L128.222 34.74ZM134.171 43.16C133.278 43.16 132.591 42.91 132.111 42.41C131.638 41.9033 131.401 41.2067 131.401 40.32V34.59H130.351C130.218 34.59 130.105 34.5467 130.011 34.46C129.918 34.3733 129.871 34.2433 129.871 34.07V33.09L131.521 32.82L132.041 30.02C132.075 29.8867 132.138 29.7833 132.231 29.71C132.325 29.6367 132.445 29.6 132.591 29.6H133.871V32.83H136.611V34.59H133.871V40.15C133.871 40.47 133.948 40.72 134.101 40.9C134.261 41.08 134.478 41.17 134.751 41.17C134.905 41.17 135.031 41.1533 135.131 41.12C135.238 41.08 135.328 41.04 135.401 41C135.481 40.96 135.551 40.9233 135.611 40.89C135.671 40.85 135.731 40.83 135.791 40.83C135.865 40.83 135.925 40.85 135.971 40.89C136.018 40.9233 136.068 40.9767 136.121 41.05L136.861 42.25C136.501 42.55 136.088 42.7767 135.621 42.93C135.155 43.0833 134.671 43.16 134.171 43.16ZM171.369 40.78V43H162.899V28.54H165.589V40.78H171.369ZM178.32 38.62C177.606 38.6533 177.006 38.7167 176.52 38.81C176.033 38.8967 175.643 39.01 175.35 39.15C175.056 39.29 174.846 39.4533 174.72 39.64C174.593 39.8267 174.53 40.03 174.53 40.25C174.53 40.6833 174.656 40.9933 174.91 41.18C175.17 41.3667 175.506 41.46 175.92 41.46C176.426 41.46 176.863 41.37 177.23 41.19C177.603 41.0033 177.966 40.7233 178.32 40.35V38.62ZM172.66 34.17C173.84 33.09 175.26 32.55 176.92 32.55C177.52 32.55 178.056 32.65 178.53 32.85C179.003 33.0433 179.403 33.3167 179.73 33.67C180.056 34.0167 180.303 34.4333 180.47 34.92C180.643 35.4067 180.73 35.94 180.73 36.52V43H179.61C179.376 43 179.196 42.9667 179.07 42.9C178.943 42.8267 178.843 42.6833 178.77 42.47L178.55 41.73C178.29 41.9633 178.036 42.17 177.79 42.35C177.543 42.5233 177.286 42.67 177.02 42.79C176.753 42.91 176.466 43 176.16 43.06C175.86 43.1267 175.526 43.16 175.16 43.16C174.726 43.16 174.326 43.1033 173.96 42.99C173.593 42.87 173.276 42.6933 173.01 42.46C172.743 42.2267 172.536 41.9367 172.39 41.59C172.243 41.2433 172.17 40.84 172.17 40.38C172.17 40.12 172.213 39.8633 172.3 39.61C172.386 39.35 172.526 39.1033 172.72 38.87C172.92 38.6367 173.176 38.4167 173.49 38.21C173.803 38.0033 174.186 37.8233 174.64 37.67C175.1 37.5167 175.633 37.3933 176.24 37.3C176.846 37.2 177.54 37.14 178.32 37.12V36.52C178.32 35.8333 178.173 35.3267 177.88 35C177.586 34.6667 177.163 34.5 176.61 34.5C176.21 34.5 175.876 34.5467 175.61 34.64C175.35 34.7333 175.12 34.84 174.92 34.96C174.72 35.0733 174.536 35.1767 174.37 35.27C174.21 35.3633 174.03 35.41 173.83 35.41C173.656 35.41 173.51 35.3667 173.39 35.28C173.27 35.1867 173.173 35.08 173.1 34.96L172.66 34.17ZM189.316 34.74C189.249 34.8467 189.179 34.9233 189.106 34.97C189.033 35.01 188.939 35.03 188.826 35.03C188.706 35.03 188.576 34.9967 188.436 34.93C188.303 34.8633 188.146 34.79 187.966 34.71C187.786 34.6233 187.579 34.5467 187.346 34.48C187.119 34.4133 186.849 34.38 186.536 34.38C186.049 34.38 185.666 34.4833 185.386 34.69C185.113 34.8967 184.976 35.1667 184.976 35.5C184.976 35.72 185.046 35.9067 185.186 36.06C185.333 36.2067 185.523 36.3367 185.756 36.45C185.996 36.5633 186.266 36.6667 186.566 36.76C186.866 36.8467 187.169 36.9433 187.476 37.05C187.789 37.1567 188.096 37.28 188.396 37.42C188.696 37.5533 188.963 37.7267 189.196 37.94C189.436 38.1467 189.626 38.3967 189.766 38.69C189.913 38.9833 189.986 39.3367 189.986 39.75C189.986 40.2433 189.896 40.7 189.716 41.12C189.543 41.5333 189.283 41.8933 188.936 42.2C188.589 42.5 188.159 42.7367 187.646 42.91C187.139 43.0767 186.553 43.16 185.886 43.16C185.533 43.16 185.186 43.1267 184.846 43.06C184.513 43 184.189 42.9133 183.876 42.8C183.569 42.6867 183.283 42.5533 183.016 42.4C182.756 42.2467 182.526 42.08 182.326 41.9L182.896 40.96C182.969 40.8467 183.056 40.76 183.156 40.7C183.256 40.64 183.383 40.61 183.536 40.61C183.689 40.61 183.833 40.6533 183.966 40.74C184.106 40.8267 184.266 40.92 184.446 41.02C184.626 41.12 184.836 41.2133 185.076 41.3C185.323 41.3867 185.633 41.43 186.006 41.43C186.299 41.43 186.549 41.3967 186.756 41.33C186.969 41.2567 187.143 41.1633 187.276 41.05C187.416 40.9367 187.516 40.8067 187.576 40.66C187.643 40.5067 187.676 40.35 187.676 40.19C187.676 39.95 187.603 39.7533 187.456 39.6C187.316 39.4467 187.126 39.3133 186.886 39.2C186.653 39.0867 186.383 38.9867 186.076 38.9C185.776 38.8067 185.466 38.7067 185.146 38.6C184.833 38.4933 184.523 38.37 184.216 38.23C183.916 38.0833 183.646 37.9 183.406 37.68C183.173 37.46 182.983 37.19 182.836 36.87C182.696 36.55 182.626 36.1633 182.626 35.71C182.626 35.29 182.709 34.89 182.876 34.51C183.043 34.13 183.286 33.8 183.606 33.52C183.933 33.2333 184.336 33.0067 184.816 32.84C185.303 32.6667 185.863 32.58 186.496 32.58C187.203 32.58 187.846 32.6967 188.426 32.93C189.006 33.1633 189.489 33.47 189.876 33.85L189.316 34.74ZM195.265 43.16C194.372 43.16 193.685 42.91 193.205 42.41C192.732 41.9033 192.495 41.2067 192.495 40.32V34.59H191.445C191.312 34.59 191.198 34.5467 191.105 34.46C191.012 34.3733 190.965 34.2433 190.965 34.07V33.09L192.615 32.82L193.135 30.02C193.168 29.8867 193.232 29.7833 193.325 29.71C193.418 29.6367 193.538 29.6 193.685 29.6H194.965V32.83H197.705V34.59H194.965V40.15C194.965 40.47 195.042 40.72 195.195 40.9C195.355 41.08 195.572 41.17 195.845 41.17C195.998 41.17 196.125 41.1533 196.225 41.12C196.332 41.08 196.422 41.04 196.495 41C196.575 40.96 196.645 40.9233 196.705 40.89C196.765 40.85 196.825 40.83 196.885 40.83C196.958 40.83 197.018 40.85 197.065 40.89C197.112 40.9233 197.162 40.9767 197.215 41.05L197.955 42.25C197.595 42.55 197.182 42.7767 196.715 42.93C196.248 43.0833 195.765 43.16 195.265 43.16Z" fill="black" fill-opacity="0.35"/>
</svg>
