<svg width="302" height="530" viewBox="0 0 302 530" fill="none" xmlns="http://www.w3.org/2000/svg">
<rect x="2" y="479" width="291" height="49" rx="13" fill="#8C91FF" stroke="black" stroke-width="4"/>
<path d="M124.162 507.415C124.279 507.415 124.383 507.46 124.474 507.551L125.322 508.471C124.852 509.052 124.274 509.498 123.586 509.807C122.903 510.116 122.082 510.271 121.122 510.271C120.263 510.271 119.49 510.124 118.802 509.831C118.119 509.538 117.535 509.13 117.05 508.607C116.564 508.084 116.191 507.46 115.93 506.735C115.674 506.01 115.546 505.218 115.546 504.359C115.546 503.49 115.684 502.695 115.962 501.975C116.239 501.25 116.628 500.626 117.13 500.103C117.636 499.58 118.239 499.175 118.938 498.887C119.636 498.594 120.41 498.447 121.258 498.447C122.1 498.447 122.847 498.586 123.498 498.863C124.154 499.14 124.711 499.503 125.17 499.951L124.45 500.951C124.407 501.015 124.351 501.071 124.282 501.119C124.218 501.167 124.127 501.191 124.01 501.191C123.93 501.191 123.847 501.17 123.762 501.127C123.676 501.079 123.583 501.023 123.482 500.959C123.38 500.89 123.263 500.815 123.13 500.735C122.996 500.655 122.842 500.583 122.666 500.519C122.49 500.45 122.284 500.394 122.05 500.351C121.82 500.303 121.554 500.279 121.25 500.279C120.732 500.279 120.258 500.372 119.826 500.559C119.399 500.74 119.031 501.007 118.722 501.359C118.412 501.706 118.172 502.132 118.002 502.639C117.831 503.14 117.746 503.714 117.746 504.359C117.746 505.01 117.836 505.588 118.018 506.095C118.204 506.602 118.455 507.028 118.77 507.375C119.084 507.722 119.455 507.988 119.882 508.175C120.308 508.356 120.767 508.447 121.258 508.447C121.551 508.447 121.815 508.431 122.05 508.399C122.29 508.367 122.508 508.316 122.706 508.247C122.908 508.178 123.098 508.09 123.274 507.983C123.455 507.871 123.634 507.735 123.81 507.575C123.863 507.527 123.919 507.49 123.978 507.463C124.036 507.431 124.098 507.415 124.162 507.415ZM129.944 501.807C130.552 501.807 131.104 501.906 131.6 502.103C132.101 502.3 132.528 502.58 132.88 502.943C133.237 503.306 133.512 503.748 133.704 504.271C133.896 504.794 133.992 505.378 133.992 506.023C133.992 506.674 133.896 507.26 133.704 507.783C133.512 508.306 133.237 508.751 132.88 509.119C132.528 509.487 132.101 509.77 131.6 509.967C131.104 510.164 130.552 510.263 129.944 510.263C129.331 510.263 128.773 510.164 128.272 509.967C127.771 509.77 127.341 509.487 126.984 509.119C126.632 508.751 126.357 508.306 126.16 507.783C125.968 507.26 125.872 506.674 125.872 506.023C125.872 505.378 125.968 504.794 126.16 504.271C126.357 503.748 126.632 503.306 126.984 502.943C127.341 502.58 127.771 502.3 128.272 502.103C128.773 501.906 129.331 501.807 129.944 501.807ZM129.944 508.743C130.627 508.743 131.131 508.514 131.456 508.055C131.787 507.596 131.952 506.924 131.952 506.039C131.952 505.154 131.787 504.479 131.456 504.015C131.131 503.551 130.627 503.319 129.944 503.319C129.251 503.319 128.736 503.554 128.4 504.023C128.069 504.487 127.904 505.159 127.904 506.039C127.904 506.919 128.069 507.591 128.4 508.055C128.736 508.514 129.251 508.743 129.944 508.743ZM137.347 502.943C137.513 502.778 137.686 502.626 137.867 502.487C138.054 502.343 138.249 502.223 138.451 502.127C138.659 502.026 138.881 501.948 139.115 501.895C139.35 501.836 139.606 501.807 139.883 501.807C140.331 501.807 140.729 501.884 141.075 502.039C141.422 502.188 141.71 502.402 141.939 502.679C142.174 502.951 142.35 503.279 142.467 503.663C142.59 504.042 142.651 504.46 142.651 504.919V510.143H140.675V504.919C140.675 504.418 140.561 504.031 140.331 503.759C140.102 503.482 139.753 503.343 139.283 503.343C138.942 503.343 138.622 503.42 138.323 503.575C138.025 503.73 137.742 503.94 137.475 504.207V510.143H135.499V501.935H136.707C136.963 501.935 137.131 502.055 137.211 502.295L137.347 502.943ZM147.157 510.271C146.443 510.271 145.893 510.071 145.509 509.671C145.131 509.266 144.941 508.708 144.941 507.999V503.415H144.101C143.995 503.415 143.904 503.38 143.829 503.311C143.755 503.242 143.717 503.138 143.717 502.999V502.215L145.037 501.999L145.453 499.759C145.48 499.652 145.531 499.57 145.605 499.511C145.68 499.452 145.776 499.423 145.893 499.423H146.917V502.007H149.109V503.415H146.917V507.863C146.917 508.119 146.979 508.319 147.101 508.463C147.229 508.607 147.403 508.679 147.621 508.679C147.744 508.679 147.845 508.666 147.925 508.639C148.011 508.607 148.083 508.575 148.141 508.543C148.205 508.511 148.261 508.482 148.309 508.455C148.357 508.423 148.405 508.407 148.453 508.407C148.512 508.407 148.56 508.423 148.597 508.455C148.635 508.482 148.675 508.524 148.717 508.583L149.309 509.543C149.021 509.783 148.691 509.964 148.317 510.087C147.944 510.21 147.557 510.271 147.157 510.271ZM152.422 501.935V510.143H150.438V501.935H152.422ZM152.694 499.543C152.694 499.714 152.66 499.874 152.59 500.023C152.521 500.172 152.428 500.303 152.31 500.415C152.198 500.527 152.065 500.618 151.91 500.687C151.756 500.751 151.59 500.783 151.414 500.783C151.244 500.783 151.081 500.751 150.926 500.687C150.777 500.618 150.646 500.527 150.534 500.415C150.422 500.303 150.332 500.172 150.262 500.023C150.198 499.874 150.166 499.714 150.166 499.543C150.166 499.367 150.198 499.202 150.262 499.047C150.332 498.892 150.422 498.759 150.534 498.647C150.646 498.535 150.777 498.447 150.926 498.383C151.081 498.314 151.244 498.279 151.414 498.279C151.59 498.279 151.756 498.314 151.91 498.383C152.065 498.447 152.198 498.535 152.31 498.647C152.428 498.759 152.521 498.892 152.59 499.047C152.66 499.202 152.694 499.367 152.694 499.543ZM156.285 502.943C156.45 502.778 156.624 502.626 156.805 502.487C156.992 502.343 157.186 502.223 157.389 502.127C157.597 502.026 157.818 501.948 158.053 501.895C158.288 501.836 158.544 501.807 158.821 501.807C159.269 501.807 159.666 501.884 160.013 502.039C160.36 502.188 160.648 502.402 160.877 502.679C161.112 502.951 161.288 503.279 161.405 503.663C161.528 504.042 161.589 504.46 161.589 504.919V510.143H159.613V504.919C159.613 504.418 159.498 504.031 159.269 503.759C159.04 503.482 158.69 503.343 158.221 503.343C157.88 503.343 157.56 503.42 157.261 503.575C156.962 503.73 156.68 503.94 156.413 504.207V510.143H154.437V501.935H155.645C155.901 501.935 156.069 502.055 156.149 502.295L156.285 502.943ZM170.54 501.935V510.143H169.332C169.071 510.143 168.906 510.023 168.836 509.783L168.7 509.127C168.364 509.468 167.994 509.746 167.588 509.959C167.183 510.167 166.706 510.271 166.156 510.271C165.708 510.271 165.311 510.196 164.964 510.047C164.623 509.892 164.335 509.676 164.1 509.399C163.866 509.122 163.687 508.794 163.564 508.415C163.447 508.031 163.388 507.61 163.388 507.151V501.935H165.364V507.151C165.364 507.652 165.479 508.042 165.708 508.319C165.943 508.591 166.292 508.727 166.756 508.727C167.098 508.727 167.418 508.652 167.716 508.503C168.015 508.348 168.298 508.138 168.564 507.871V501.935H170.54ZM177.787 505.095C177.787 504.839 177.75 504.599 177.675 504.375C177.606 504.146 177.499 503.946 177.355 503.775C177.211 503.604 177.027 503.471 176.803 503.375C176.585 503.274 176.329 503.223 176.035 503.223C175.465 503.223 175.014 503.386 174.683 503.711C174.358 504.036 174.15 504.498 174.059 505.095H177.787ZM174.019 506.287C174.051 506.708 174.126 507.074 174.243 507.383C174.361 507.687 174.515 507.94 174.707 508.143C174.899 508.34 175.126 508.49 175.387 508.591C175.654 508.687 175.947 508.735 176.267 508.735C176.587 508.735 176.862 508.698 177.091 508.623C177.326 508.548 177.529 508.466 177.699 508.375C177.875 508.284 178.027 508.202 178.155 508.127C178.289 508.052 178.417 508.015 178.539 508.015C178.705 508.015 178.827 508.076 178.907 508.199L179.475 508.919C179.257 509.175 179.011 509.391 178.739 509.567C178.467 509.738 178.182 509.876 177.883 509.983C177.59 510.084 177.289 510.156 176.979 510.199C176.675 510.242 176.379 510.263 176.091 510.263C175.521 510.263 174.99 510.17 174.499 509.983C174.009 509.791 173.582 509.511 173.219 509.143C172.857 508.77 172.571 508.311 172.363 507.767C172.155 507.218 172.051 506.583 172.051 505.863C172.051 505.303 172.142 504.778 172.323 504.287C172.505 503.791 172.763 503.362 173.099 502.999C173.441 502.631 173.854 502.34 174.339 502.127C174.83 501.914 175.382 501.807 175.995 501.807C176.513 501.807 176.99 501.89 177.427 502.055C177.865 502.22 178.241 502.463 178.555 502.783C178.87 503.098 179.115 503.487 179.291 503.951C179.473 504.41 179.563 504.935 179.563 505.527C179.563 505.826 179.531 506.028 179.467 506.135C179.403 506.236 179.281 506.287 179.099 506.287H174.019Z" fill="white"/>
<rect x="9.5" y="2.5" width="290" height="65" rx="12.5" fill="white" stroke="black" stroke-width="5"/>
</svg>
